solid OpenSCAD_Model
  facet normal -0 0 1
    outer loop
      vertex -32 32 32
      vertex 32 -32 32
      vertex 32 32 32
    endloop
  endfacet
  facet normal 0 0 1
    outer loop
      vertex 32 -32 32
      vertex -32 32 32
      vertex -32 -32 32
    endloop
  endfacet
  facet normal 0 0 -1
    outer loop
      vertex -32 -32 -32
      vertex 32 32 -32
      vertex 32 -32 -32
    endloop
  endfacet
  facet normal -0 0 -1
    outer loop
      vertex 32 32 -32
      vertex -32 -32 -32
      vertex -32 32 -32
    endloop
  endfacet
  facet normal 0 -1 0
    outer loop
      vertex -32 -32 -32
      vertex 32 -32 32
      vertex -32 -32 32
    endloop
  endfacet
  facet normal 0 -1 -0
    outer loop
      vertex 32 -32 32
      vertex -32 -32 -32
      vertex 32 -32 -32
    endloop
  endfacet
  facet normal 1 -0 0
    outer loop
      vertex 32 -32 32
      vertex 32 32 -32
      vertex 32 32 32
    endloop
  endfacet
  facet normal 1 0 0
    outer loop
      vertex 32 32 -32
      vertex 32 -32 32
      vertex 32 -32 -32
    endloop
  endfacet
  facet normal 0 1 -0
    outer loop
      vertex 32 32 -32
      vertex -32 32 32
      vertex 32 32 32
    endloop
  endfacet
  facet normal 0 1 0
    outer loop
      vertex -32 32 32
      vertex 32 32 -32
      vertex -32 32 -32
    endloop
  endfacet
  facet normal -1 0 0
    outer loop
      vertex -32 -32 -32
      vertex -32 32 32
      vertex -32 32 -32
    endloop
  endfacet
  facet normal -1 -0 0
    outer loop
      vertex -32 32 32
      vertex -32 -32 -32
      vertex -32 -32 32
    endloop
  endfacet
endsolid OpenSCAD_Model
